<svg width="31.7" height="31.7" xmlns="http://www.w3.org/2000/svg" version="1.1" xml:space="preserve">
 <g>
  <title>Layer 1</title>
  <g id="svg_1">
   <g id="svg_2">
    <circle cx="13.352" cy="8.459" r="2.831" id="svg_3"/>
    <path d="m11.025,17.413c0.943,0.657 2.062,0.985 3.347,0.985c0.701,0 2.918,-0.482 3.446,-0.652c0.597,-0.205 0.895,-0.493 1.074,-0.845c0.221,-0.592 0.115,-1.217 0.115,-1.217c-0.179,-1.11 -1.263,-1.362 -2.105,-1.057c-1.257,0.449 -2.972,0.836 -4.007,0.126c-0.438,-0.3 -0.713,-0.768 -0.885,-1.222c0.258,-0.852 0.092,-1.812 -0.527,-2.542c-0.969,-1.14 -2.576,-1.142 -3.818,-0.309c-2.132,1.43 -3.787,6.502 -3.787,9.357c0.01,0.002 -0.085,1.398 1.478,1.533c0.469,0.024 4.573,0.014 5.865,0.01c0.005,0.023 0.012,0.066 0.012,0.137c-0.005,1.182 0.001,5.48 0.004,7.475c0.001,0.564 0.46,1.021 1.026,1.021l1.016,0c0.273,0 0.534,-0.105 0.726,-0.301c0.192,-0.193 0.3,-0.453 0.3,-0.727c-0.003,-1.992 -0.009,-6.281 -0.005,-7.457c0.009,-2.091 -1.584,-3.062 -2.657,-3.203l-0.208,-0.015c-0.614,0.002 -1.346,0.004 -2.082,0.006c0.168,-0.805 0.415,-1.471 0.674,-2.01c0.279,0.327 0.608,0.634 0.998,0.907z" id="svg_4"/>
    <path d="m3.071,8.738c0,-0.848 -0.688,-1.534 -1.535,-1.534c-0.848,0 -1.536,0.687 -1.536,1.534l0,15.339c0,0.791 0.601,1.441 1.371,1.521c0.001,0.005 0.003,0.007 0.005,0.007l0.55,0l0,3.586c0,0.563 0.451,1.022 1.015,1.022c0.565,0 1.015,-0.457 1.015,-1.022l0,-3.586l3.228,0l0,3.586c0,0.563 0.451,1.022 1.016,1.022c0.564,0 1.015,-0.457 1.015,-1.022l0,-3.586l0.989,0l0,-3.07l-7.133,0l0,-13.797z" id="svg_5"/>
    <path d="m30.689,18.942c-0.234,-1.207 -1.008,-2.224 -2.062,-2.781l0,-0.968l1.457,0l0,-6.748l-5.567,-1.996l0,-0.989l-2.031,0l0,10.256l2.031,0l0,-0.521l1.041,0l0,0.696c-1.379,0.439 -2.428,1.606 -2.709,3.052l-6.488,0c-0.565,0 -1.023,0.477 -1.023,1.041c0,0.565 0.458,1.041 1.023,1.041l2.063,0l0,9.215l11.244,0l0,-9.215l1.007,0c0.564,0 1.023,-0.476 1.023,-1.041c0.004,-0.561 -0.448,-1.036 -1.009,-1.042z" id="svg_6"/>
   </g>
  </g>
 </g>

 <g>
  <title>Layer 2</title>
  <g stroke-width="3" transform="rotate(9, 14.0805, 3.64783)" id="svg_7">
   <path stroke-width="2" id="svg_8" d="m16.17395,5.82825c-0.61206,-1.24594 -1.21525,-2.48287 -1.82731,-3.72883c0.13306,-0.09029 0.22177,-0.24377 0.22177,-0.41532c0,-0.27989 -0.22177,-0.49657 -0.48788,-0.49657c-0.27498,0 -0.48788,0.22571 -0.48788,0.49657c0,0.1896 0.10644,0.35212 0.25724,0.44241c-0.62092,1.23692 -1.24186,2.47385 -1.86278,3.71076c-0.06209,0.11737 0.00887,0.27086 0.1508,0.27086c1.29508,0 2.59016,-0.00903 3.87638,-0.00903c0.1508,0 0.22177,-0.15348 0.15967,-0.27086l0,0.00001l-0.00001,0zm-2.78531,-1.99533l1.1975,-0.46046c0.0887,0.18057 0.17741,0.36114 0.26611,0.54171l-1.82731,0.632c0.11531,-0.22571 0.2395,-0.46948 0.36369,-0.71326l0.00001,0.00001zm0.2395,-0.46948c0.15967,-0.316 0.31933,-0.64103 0.479,-0.95703c0.10644,0.21669 0.21289,0.43337 0.31933,0.65007l-0.79834,0.30698l0.00001,-0.00001l0,-0.00001zm-0.83381,1.65224l2.21761,-0.76743c0.0887,0.18057 0.17741,0.36114 0.26611,0.54171l-2.83853,0.95703c0.11531,-0.24377 0.23063,-0.48755 0.35481,-0.73132l0,0.00001zm2.63452,0.09932c0.09758,0.20766 0.20402,0.41532 0.30159,0.62298c-0.72738,0 -1.44588,0 -2.17325,0l1.87166,-0.62298zm-1.3483,-3.57533c0.07097,0 0.13306,0.0632 0.13306,0.13543c0,0.07223 -0.05322,0.12639 -0.12419,0.13543c-0.00887,0 -0.00887,0 -0.01774,0c-0.07097,0 -0.13306,-0.0632 -0.13306,-0.13543c0.00887,-0.07223 0.07097,-0.13543 0.14192,-0.13543l0.00001,0z"/>
  </g>
 </g>
</svg>